<svg width="124" height="24" viewBox="0 0 124 24" fill="none" xmlns="http://www.w3.org/2000/svg">
<path d="M3.02 16.76V15.84H2.1V14.94H1.2V10.22H2.1V9.34H3.02V8.42H7.76V9.34H8.66V10.22H9.58V11.12H10.5V13.14H9.58V14.04H8.66V14.94H7.62V14.18H7V14.94H4.24V14.18H3.4V11.74H4.24V10.96H7V11.74H7.82V14H8.46V12.94H9.38V11.32H8.46V10.42H7.56V9.52H3.22V10.42H2.3V14.74H3.22V15.64H6.86V16.76H3.02ZM4.44 14H6.8V11.94H4.44V14ZM14.7388 18.24V16.44H12.9188V10.82H14.7388V9H20.1988V5.38H22.2188V16.44H20.3788V18.24H14.7388ZM14.9388 16.24H20.1788V11H14.9388V16.24ZM26.0669 21.86V20.06H24.2469V18.06H26.2669V19.86H31.5269V16.44H26.0669V14.62H24.2469V10.82H26.0669V9H31.7269V10.82H33.5469V20.06H31.7269V21.86H26.0669ZM26.2669 14.42H31.5269V11H26.2669V14.42ZM35.575 18.24V5.38H37.595V10.82H39.195V9H43.035V10.82H44.875V18.24H42.835V11H39.395V12.8H37.595V18.24H35.575ZM48.7231 18.24V16.44H46.9031V10.82H48.7231V9H54.3631V10.82H56.2031V12.8H54.1631V11H48.9231V12.6H52.5631V14.62H48.9231V16.24H54.1631V14.4H56.2031V16.42H54.3631V18.24H48.7231ZM58.6219 18.24V16.24H60.4419V14.42H62.2419V12.6H64.0819V11H58.6219V9H67.9219V11H66.0819V12.8H64.2819V14.62H62.4419V16.24H67.9219V18.24H58.6219ZM70.3406 18V15.98H76.7806V18H70.3406Z" fill="white"/>
<path d="M91.02 18.24V16.44H89.2V5.38H91.22V16.24H96.46V14.42H98.5V16.44H96.66V18.24H91.02ZM100.919 18.24V9H102.739V7.2H104.539V5.38H106.579V7.2H108.379V9H110.219V18.24H108.179V14.62H102.939V18.24H100.919ZM102.939 12.6H108.179V9.2H106.379V7.4H104.739V9.2H102.939V12.6ZM114.458 18.24V16.44H112.638V7.2H114.458V5.38H120.098V7.2H121.938V11H120.098V12.6H121.938V16.44H120.098V18.24H114.458ZM114.658 16.24H119.898V12.8H116.258V10.82H119.898V7.4H114.658V16.24Z" fill="white"/>
</svg>
